<?xml version="1.0" encoding="UTF-8" standalone="no" ?>
<!DOCTYPE svg PUBLIC "-//W3C//DTD SVG 1.1//EN" "http://www.w3.org/Graphics/SVG/1.1/DTD/svg11.dtd">
<svg xmlns="http://www.w3.org/2000/svg" xmlns:xlink="http://www.w3.org/1999/xlink" version="1.1" width="200" height="200" viewBox="0 0 200 200" xml:space="preserve">
<desc>Created with Fabric.js 4.6.0</desc>
<defs>
</defs>
<g transform="matrix(1.46 0 0 1.46 99.87 123.54)" id="05J3VoD5FQcb9NzqauDmr"  >
<path style="stroke: none; stroke-width: 1; stroke-dasharray: none; stroke-linecap: butt; stroke-dashoffset: 0; stroke-linejoin: miter; stroke-miterlimit: 4; fill: rgb(77,40,0); fill-rule: nonzero; opacity: 1;" vector-effect="non-scaling-stroke"  transform=" translate(0, 0)" d="M 20 -6.64504 L 40 33.35496 L 0 33.35496 L -40 33.35496 L -20 -6.645040000000002 L -9.62188 -27.40128 L -9.62188 -27.40128 C -7.797220000000001 -31.05061 -4.073100000000001 -33.35496 0 -33.35496 C 4.0731 -33.35496 7.79721 -31.05061 9.62188 -27.40128 z" stroke-linecap="round" />
</g>
<g transform="matrix(0.72 0 0 0.3 99.87 172.9)" id="Ag9vUIuMsAF0eOfFQFcTx"  >
<path style="stroke: rgb(130,68,107); stroke-width: 0; stroke-dasharray: none; stroke-linecap: butt; stroke-dashoffset: 0; stroke-linejoin: miter; stroke-miterlimit: 4; fill: rgb(77,40,0); fill-rule: nonzero; opacity: 1;" vector-effect="non-scaling-stroke"  transform=" translate(0, 0)" d="M -72.76061 -14.25771 C -63.19838 -48.449439999999996 -36.65814 -81.18468 0.5720799999999997 -81.18468 C 38.6917 -81.18468 62.40718 -44.4602 71.12004 -9.016369999999995 C 72.65014000000001 -2.7919499999999946 80.61261 -6.6943299999999955 80.61261 -0.000009999999994292352 C 80.61261 44.813930000000006 45.38602 81.18466000000001 0.5720799999999997 81.18466000000001 C -44.24186 81.18466000000001 -80.61259 44.813930000000006 -80.61259 -0.000009999999988963282 C -80.61259 -7.583739999999989 -74.70841 -7.292919999999989 -72.7606 -14.257719999999988 z" stroke-linecap="round" />
</g>
<g transform="matrix(0.59 0 0 0.59 124.4 130.52)" id="4dGEoE9hSD9xCnavNIu3e"  >
<path style="stroke: rgb(255,153,153); stroke-width: 4; stroke-dasharray: none; stroke-linecap: butt; stroke-dashoffset: 0; stroke-linejoin: miter; stroke-miterlimit: 4; fill: rgb(255,255,255); fill-opacity: 0; fill-rule: nonzero; opacity: 1;" vector-effect="non-scaling-stroke"  transform=" translate(0, 0)" d="M -41.1763 -94.42461 L -41.1763 -67.71144 C -41.1763 -63.031749999999995 -40.28496 -58.39489 -38.54991 -54.04872999999999 L -34.112959999999994 -42.93446999999999 L -34.112959999999994 -42.93446999999999 C -33.18241 -40.603489999999994 -31.640819999999994 -38.56640999999999 -29.650369999999995 -37.03750999999999 L -16.673239999999993 -27.06956999999999 L -16.673239999999993 -27.06956999999999 C -11.423109999999992 -23.03685999999999 -7.368989999999993 -17.651819999999994 -4.945189999999993 -11.491309999999991 L -0.2871099999999931 0.347970000000009 L 2.769070000000007 6.314800000000009 L 2.769070000000007 6.314800000000009 C 5.557100000000007 11.75809000000001 6.8121600000000075 17.857180000000007 6.399870000000007 23.95903000000001 L 5.621150000000007 35.48404000000001 L 5.621150000000007 35.48404000000001 C 5.401950000000007 38.72825000000001 5.943480000000007 41.978820000000006 7.202610000000007 44.97674000000001 L 9.797460000000008 51.15496 L 9.797460000000008 51.15496 C 11.628430000000009 55.51442 14.702950000000008 59.23798 18.637180000000008 61.860800000000005 L 23.92647000000001 65.387 L 23.92647000000001 65.387 C 27.45755000000001 67.74106 30.25696000000001 71.03902 32.00613000000001 74.90561 L 35.94982000000002 83.62324 L 41.17630000000002 94.42463" stroke-linecap="round" />
</g>
<g transform="matrix(0.62 0 0 0.6 75.01 113.13)" id="t0LNmtXBn0pfg5ljc76Fk"  >
<path style="stroke: rgb(255,153,153); stroke-width: 4; stroke-dasharray: none; stroke-linecap: butt; stroke-dashoffset: 0; stroke-linejoin: miter; stroke-miterlimit: 4; fill: rgb(255,255,255); fill-opacity: 0; fill-rule: nonzero; opacity: 1;" vector-effect="non-scaling-stroke"  transform=" translate(0, 0)" d="M 41.05103 -66.60467 L 30.835289999999997 -52.55973 C 27.815409999999996 -48.4079 25.553279999999997 -43.72408 24.159399999999998 -38.7371 L 21.422729999999998 -28.945909999999998 L 21.422729999999998 -28.945909999999998 C 19.638609999999996 -22.562739999999998 19.419389999999996 -15.822599999999998 20.78475 -9.330499999999997 L 23.95564 5.746750000000002 L 23.95564 5.746750000000002 C 25.45477 12.874960000000002 24.625329999999998 20.31436 21.59657 26.905690000000003 L 13.70595 44.07766000000001 L 13.70595 44.07766000000001 C 11.79982 48.22588000000001 8.45206 51.48424000000001 4.326139999999999 53.20700000000001 L -6.313450000000001 57.64952000000001 L -6.313450000000001 57.64952000000001 C -10.818520000000001 59.53059000000001 -15.47493 61.00045000000001 -20.22913 62.04219000000001 L -41.05103 66.60467000000001" stroke-linecap="round" />
</g>
<g transform="matrix(0.59 0 0 0.6 83.69 170.04)" id="V9jHna0VsTd9TEV4dU4g9"  >
<path style="stroke: rgb(255,153,153); stroke-width: 4; stroke-dasharray: none; stroke-linecap: butt; stroke-dashoffset: 0; stroke-linejoin: miter; stroke-miterlimit: 4; fill: rgb(255,255,255); fill-opacity: 0; fill-rule: nonzero; opacity: 1;" vector-effect="non-scaling-stroke"  transform=" translate(0, 0)" d="M -2.86067 -44.27442 L 0.16454000000000013 -11.16518 L 2.8606800000000003 44.27441" stroke-linecap="round" />
</g>
<g transform="matrix(0.59 0 0 0.59 116.92 157.43)" id="zVNbdJS3dsbXqc065oMIm"  >
<path style="stroke: rgb(255,153,153); stroke-width: 4; stroke-dasharray: none; stroke-linecap: butt; stroke-dashoffset: 0; stroke-linejoin: miter; stroke-miterlimit: 4; fill: rgb(255,255,255); fill-opacity: 0; fill-rule: nonzero; opacity: 1;" vector-effect="non-scaling-stroke"  transform=" translate(0, 0)" d="M -50.02754 -42.2103 L -34.7314 -12.914299999999997 C -31.71468 -7.136519999999997 -28.1434 -1.6657099999999971 -24.067950000000003 3.4209400000000016 L -12.385290000000003 18.0023 L -12.385290000000003 18.0023 C -9.451520000000002 21.663990000000002 -5.318540000000003 24.17161 -0.7158100000000029 25.08257 L 13.281019999999996 27.85278 L 13.281019999999996 27.85278 C 20.682589999999998 29.31767 27.873879999999996 31.69503 34.69016 34.93038 L 50.02756 42.21029" stroke-linecap="round" />
</g>
<g transform="matrix(0.63 0 0 0.63 114.17 184.42)" id="OzMWuwQ4f8reQJEy4LzaA"  >
<path style="stroke: rgb(255,153,153); stroke-width: 4; stroke-dasharray: none; stroke-linecap: butt; stroke-dashoffset: 0; stroke-linejoin: miter; stroke-miterlimit: 4; fill: rgb(255,255,255); fill-opacity: 0; fill-rule: nonzero; opacity: 1;" vector-effect="non-scaling-stroke"  transform=" translate(0, 0)" d="M -3.36134 -20.99642 L 3.36135 8.226119999999998 L -1.3622899999999998 20.996409999999997" stroke-linecap="round" />
</g>
<g transform="matrix(3.23 1.62 -8.87 17.71 59.96 105.46)" id="-k24-tZ7XQnrhnvdExfOA"  >
<path style="stroke: rgb(255,153,153); stroke-width: 0; stroke-dasharray: none; stroke-linecap: butt; stroke-dashoffset: 0; stroke-linejoin: miter; stroke-miterlimit: 4; fill: rgb(0,0,0); fill-rule: nonzero; opacity: 1;" vector-effect="non-scaling-stroke"  transform=" translate(0, 0)" d="M -3.78151 -3.78151 L 3.78151 -3.78151 L 3.78151 3.78151 L -3.78151 3.78151 z" stroke-linecap="round" />
</g>
<g transform="matrix(3.24 -1.62 8.87 17.71 141.45 108.8)" id="tVTvSWzDUzHDZKsVchBjt"  >
<path style="stroke: rgb(255,153,153); stroke-width: 0; stroke-dasharray: none; stroke-linecap: butt; stroke-dashoffset: 0; stroke-linejoin: miter; stroke-miterlimit: 4; fill: rgb(0,0,0); fill-rule: nonzero; opacity: 1;" vector-effect="non-scaling-stroke"  transform=" translate(0, 0)" d="M -3.78151 -3.78151 L 3.78151 -3.78151 L 3.78151 3.78151 L -3.78151 3.78151 z" stroke-linecap="round" />
</g>
<g transform="matrix(1.12 0 0 0.15 99.87 186.16)" id="FsnQw2HGLW1hPxZbbSUFn"  >
<path style="stroke: rgb(255,153,153); stroke-width: 0; stroke-dasharray: none; stroke-linecap: butt; stroke-dashoffset: 0; stroke-linejoin: miter; stroke-miterlimit: 4; fill: rgb(0,0,0); fill-rule: nonzero; opacity: 1;" vector-effect="non-scaling-stroke"  transform=" translate(0, 0)" d="M -88.70293 -88.70293 L 88.70291999999999 -88.70293 L 88.70291999999999 88.70291999999999 L -88.70293 88.70291999999999 z" stroke-linecap="round" />
</g>
<g transform="matrix(0.75 0 0 4.87 14.32 90.18)" id="f5xn0U_r3ULkoVGYKHtDp"  >
<path style="stroke: rgb(255,153,153); stroke-width: 0; stroke-dasharray: none; stroke-linecap: butt; stroke-dashoffset: 0; stroke-linejoin: miter; stroke-miterlimit: 4; fill: rgb(0,0,0); fill-rule: nonzero; opacity: 1;" vector-effect="non-scaling-stroke"  transform=" translate(0, 0)" d="M -18.41004 -18.41004 L 18.41004 -18.41004 L 18.41004 18.41004 L -18.41004 18.41004 z" stroke-linecap="round" />
</g>
<g transform="matrix(1.11 0 0 5.4 178.9 100)" id="zvF34fuqPZJTPd4t_jsap"  >
<path style="stroke: rgb(255,153,153); stroke-width: 0; stroke-dasharray: none; stroke-linecap: butt; stroke-dashoffset: 0; stroke-linejoin: miter; stroke-miterlimit: 4; fill: rgb(0,0,0); fill-rule: nonzero; opacity: 1;" vector-effect="non-scaling-stroke"  transform=" translate(0, 0)" d="M -18.41004 -18.41004 L 18.41004 -18.41004 L 18.41004 18.41004 L -18.41004 18.41004 z" stroke-linecap="round" />
</g>
<g transform="matrix(0.6 0 0 0.24 93.35 26.89)" id="zg0HDfvb4RM7rvomFEvkS"  >
<path style="stroke: rgb(255,153,153); stroke-width: 0; stroke-dasharray: none; stroke-linecap: butt; stroke-dashoffset: 0; stroke-linejoin: miter; stroke-miterlimit: 4; fill: rgb(0,0,0); fill-rule: nonzero; opacity: 1;" vector-effect="non-scaling-stroke"  transform=" translate(0, 0)" d="M -109.20502 -109.20502 L 109.20503000000001 -109.20502 L 109.20503000000001 109.20503000000001 L -109.20502 109.20503000000001 z" stroke-linecap="round" />
</g>
<g transform="matrix(0.51 0.3 -0.3 0.51 8.83 88.43)" id="QPWFWNnAPOhpcp6Lt94kK"  >
<path style="stroke: rgb(255,153,153); stroke-width: 0; stroke-dasharray: none; stroke-linecap: butt; stroke-dashoffset: 0; stroke-linejoin: miter; stroke-miterlimit: 4; fill: rgb(0,0,0); fill-rule: nonzero; opacity: 1;" vector-effect="non-scaling-stroke"  transform=" translate(0, 0)" d="M -84.46361 -117.85931 L 84.46361 -106.45102999999999 L 84.46361 68.86278 L 51.628600000000006 117.85931 z" stroke-linecap="round" />
</g>
<g transform="matrix(0.51 -0.3 0.3 0.51 173.99 70.52)" id="d-FNwMCJ7TZPt2hrxd4UX"  >
<path style="stroke: rgb(255,153,153); stroke-width: 0; stroke-dasharray: none; stroke-linecap: butt; stroke-dashoffset: 0; stroke-linejoin: miter; stroke-miterlimit: 4; fill: rgb(0,0,0); fill-rule: nonzero; opacity: 1;" vector-effect="non-scaling-stroke"  transform=" translate(0, 0)" d="M -87.65691 -87.65691 L 87.6569 -87.65691 L 53.669129999999996 -28.788369999999993 L -87.65691000000001 87.65690000000001 z" stroke-linecap="round" />
</g>
<g transform="matrix(0.47 -0.36 0.36 0.47 121.39 60.21)" id="193c_nmQquniKmPi6GewZ"  >
<path style="stroke: rgb(255,153,153); stroke-width: 0; stroke-dasharray: none; stroke-linecap: butt; stroke-dashoffset: 0; stroke-linejoin: miter; stroke-miterlimit: 4; fill: rgb(0,0,0); fill-rule: nonzero; opacity: 1;" vector-effect="non-scaling-stroke"  transform=" translate(0, 0)" d="M -33.4728 -33.4728 L 33.47281 -33.4728 L 33.47281 33.47281 L -33.4728 33.47281 z" stroke-linecap="round" />
</g>
<g transform="matrix(0.43 -0.41 0.41 0.43 117.46 58.23)" id="MptdfgeRlYnxjcTT-TMEf"  >
<path style="stroke: rgb(255,153,153); stroke-width: 0; stroke-dasharray: none; stroke-linecap: butt; stroke-dashoffset: 0; stroke-linejoin: miter; stroke-miterlimit: 4; fill: rgb(0,0,0); fill-rule: nonzero; opacity: 1;" vector-effect="non-scaling-stroke"  transform=" translate(0, 0)" d="M -33.4728 -33.4728 L 33.47281 -33.4728 L 33.47281 33.47281 L -33.4728 33.47281 z" stroke-linecap="round" />
</g>
<g transform="matrix(0.36 -0.47 0.47 0.36 117.67 59.71)" id="_CliFmj8tFG2hneT-3IjY"  >
<path style="stroke: rgb(255,153,153); stroke-width: 0; stroke-dasharray: none; stroke-linecap: butt; stroke-dashoffset: 0; stroke-linejoin: miter; stroke-miterlimit: 4; fill: rgb(0,0,0); fill-rule: nonzero; opacity: 1;" vector-effect="non-scaling-stroke"  transform=" translate(0, 0)" d="M -33.4728 -33.4728 L 33.47281 -33.4728 L 33.47281 33.47281 L -33.4728 33.47281 z" stroke-linecap="round" />
</g>
<g transform="matrix(0.31 -0.51 0.51 0.3 114.24 57.76)" id="iC-fAJN9FTyGZdBiYojBk"  >
<path style="stroke: rgb(255,153,153); stroke-width: 0; stroke-dasharray: none; stroke-linecap: butt; stroke-dashoffset: 0; stroke-linejoin: miter; stroke-miterlimit: 4; fill: rgb(0,0,0); fill-rule: nonzero; opacity: 1;" vector-effect="non-scaling-stroke"  transform=" translate(0, 0)" d="M -33.4728 -33.4728 L 33.47281 -33.4728 L 33.47281 33.47281 L -33.4728 33.47281 z" stroke-linecap="round" />
</g>
<g transform="matrix(0.24 -0.54 0.54 0.24 112.05 57.13)" id="PlGJBZJ2ZXoIPc2q7fve0"  >
<path style="stroke: rgb(255,153,153); stroke-width: 0; stroke-dasharray: none; stroke-linecap: butt; stroke-dashoffset: 0; stroke-linejoin: miter; stroke-miterlimit: 4; fill: rgb(0,0,0); fill-rule: nonzero; opacity: 1;" vector-effect="non-scaling-stroke"  transform=" translate(0, 0)" d="M -33.4728 -33.4728 L 33.47281 -33.4728 L 33.47281 33.47281 L -33.4728 33.47281 z" stroke-linecap="round" />
</g>
<g transform="matrix(0.18 -0.56 0.56 0.18 111.59 56.93)" id="cEh3M2YRkU0x4YJQiR5sS"  >
<path style="stroke: rgb(255,153,153); stroke-width: 0; stroke-dasharray: none; stroke-linecap: butt; stroke-dashoffset: 0; stroke-linejoin: miter; stroke-miterlimit: 4; fill: rgb(0,0,0); fill-rule: nonzero; opacity: 1;" vector-effect="non-scaling-stroke"  transform=" translate(0, 0)" d="M -33.4728 -33.4728 L 33.47281 -33.4728 L 33.47281 33.47281 L -33.4728 33.47281 z" stroke-linecap="round" />
</g>
<g transform="matrix(0.47 -0.36 0.36 0.47 85.19 57.13)" id="NvFncabbwn2n_xjWef_P6"  >
<path style="stroke: rgb(255,153,153); stroke-width: 0; stroke-dasharray: none; stroke-linecap: butt; stroke-dashoffset: 0; stroke-linejoin: miter; stroke-miterlimit: 4; fill: rgb(0,0,0); fill-rule: nonzero; opacity: 1;" vector-effect="non-scaling-stroke"  transform=" translate(0, 0)" d="M -33.4728 -33.4728 L 33.47281 -33.4728 L 33.47281 33.47281 L -33.4728 33.47281 z" stroke-linecap="round" />
</g>
<g transform="matrix(0 -0.59 0.59 0 98.31 55.15)" id="AP-Zu8N638RJoJbatyI1q"  >
<path style="stroke: rgb(255,153,153); stroke-width: 0; stroke-dasharray: none; stroke-linecap: butt; stroke-dashoffset: 0; stroke-linejoin: miter; stroke-miterlimit: 4; fill: rgb(0,0,0); fill-rule: nonzero; opacity: 1;" vector-effect="non-scaling-stroke"  transform=" translate(0, 0)" d="M -33.4728 -33.4728 L 33.47281 -33.4728 L 33.47281 33.47281 L -33.4728 33.47281 z" stroke-linecap="round" />
</g>
<g transform="matrix(-0.07 -0.59 0.59 -0.07 93.55 55.75)" id="JXPJI7Gyd9f97C8Im2pyx"  >
<path style="stroke: rgb(255,153,153); stroke-width: 0; stroke-dasharray: none; stroke-linecap: butt; stroke-dashoffset: 0; stroke-linejoin: miter; stroke-miterlimit: 4; fill: rgb(0,0,0); fill-rule: nonzero; opacity: 1;" vector-effect="non-scaling-stroke"  transform=" translate(0, 0)" d="M -33.4728 -33.4728 L 33.47281 -33.4728 L 33.47281 33.47281 L -33.4728 33.47281 z" stroke-linecap="round" />
</g>
<g transform="matrix(-0.14 -0.57 0.57 -0.14 91.61 56.06)" id="SwrmTFBuZ2bNicVMhhjVv"  >
<path style="stroke: rgb(255,153,153); stroke-width: 0; stroke-dasharray: none; stroke-linecap: butt; stroke-dashoffset: 0; stroke-linejoin: miter; stroke-miterlimit: 4; fill: rgb(0,0,0); fill-rule: nonzero; opacity: 1;" vector-effect="non-scaling-stroke"  transform=" translate(0, 0)" d="M -33.4728 -33.4728 L 33.47281 -33.4728 L 33.47281 33.47281 L -33.4728 33.47281 z" stroke-linecap="round" />
</g>
<g transform="matrix(-0.45 -0.39 0.39 -0.45 75.66 64.69)" id="gYzb8w1GIf3sHwriuVRQ4"  >
<path style="stroke: rgb(255,153,153); stroke-width: 0; stroke-dasharray: none; stroke-linecap: butt; stroke-dashoffset: 0; stroke-linejoin: miter; stroke-miterlimit: 4; fill: rgb(0,0,0); fill-rule: nonzero; opacity: 1;" vector-effect="non-scaling-stroke"  transform=" translate(0, 0)" d="M -33.4728 -33.4728 L 33.47281 -33.4728 L 33.47281 33.47281 L -33.4728 33.47281 z" stroke-linecap="round" />
</g>
<g transform="matrix(0.17 -0.2 0.2 0.17 61.6 48.58)" id="reac4lPhi6C55If4BG6Cs"  >
<g style="" vector-effect="non-scaling-stroke"   >
		<g transform="matrix(0.24 0 0 0.4 13.16 -20.76)" id="WRAHCY1wfz-aYwQPOl8Js"  >
<path style="stroke: none; stroke-width: 1; stroke-dasharray: none; stroke-linecap: butt; stroke-dashoffset: 0; stroke-linejoin: miter; stroke-miterlimit: 4; fill: rgb(255,153,153); fill-rule: nonzero; opacity: 1;" vector-effect="non-scaling-stroke"  transform=" translate(0, 0)" d="M -54.64436 -54.93761 L 54.64436 54.93762 L -54.64436 25.062390000000004 z" stroke-linecap="round" />
</g>
		<g transform="matrix(0.33 0 0 0.15 13.16 2.7)" id="SD2qZ9i5_BZ1ZLeegOQCc"  >
<path style="stroke: none; stroke-width: 1; stroke-dasharray: none; stroke-linecap: butt; stroke-dashoffset: 0; stroke-linejoin: miter; stroke-miterlimit: 4; fill: rgb(217,122,122); fill-rule: nonzero; opacity: 1;" vector-effect="non-scaling-stroke"  transform=" translate(0, 0)" d="M -39.85927 -90.06274 L 39.85927 -11.334890000000001 L -39.85927 90.06275 z" stroke-linecap="round" />
</g>
		<g transform="matrix(0.33 0 0 0.27 13.17 24.15)" id="h2C9IDlU3iwc5Fa3rCv6w"  >
<path style="stroke: none; stroke-width: 1; stroke-dasharray: none; stroke-linecap: butt; stroke-dashoffset: 0; stroke-linejoin: miter; stroke-miterlimit: 4; fill: rgb(255,153,153); fill-rule: nonzero; opacity: 1;" vector-effect="non-scaling-stroke"  transform=" translate(0, 0)" d="M -39.69595 -11.13568 L 39.69595 -68.86433 L -39.69595 68.86431999999999 z" stroke-linecap="round" />
</g>
		<g transform="matrix(-0.24 0 0 0.4 -13.16 -20.76)" id="NG7BDhYQ0HJ8B4G5BRtCD"  >
<path style="stroke: none; stroke-width: 1; stroke-dasharray: none; stroke-linecap: butt; stroke-dashoffset: 0; stroke-linejoin: miter; stroke-miterlimit: 4; fill: rgb(201,159,159); fill-rule: nonzero; opacity: 1;" vector-effect="non-scaling-stroke"  transform=" translate(0, 0)" d="M -54.64436 -54.93761 L 54.64436 54.93762 L -54.64436 25.062390000000004 z" stroke-linecap="round" />
</g>
		<g transform="matrix(-0.33 0 0 0.15 -13.16 2.7)" id="8QBJoTNHAVCqx3W99DSgU"  >
<path style="stroke: none; stroke-width: 1; stroke-dasharray: none; stroke-linecap: butt; stroke-dashoffset: 0; stroke-linejoin: miter; stroke-miterlimit: 4; fill: rgb(255,153,153); fill-rule: nonzero; opacity: 1;" vector-effect="non-scaling-stroke"  transform=" translate(0, 0)" d="M -39.85927 -90.06274 L 39.85927 -11.334890000000001 L -39.85927 90.06275 z" stroke-linecap="round" />
</g>
		<g transform="matrix(-0.33 0 0 0.27 -13.17 24.15)" id="Yt0Dvey6g662KOS7lX-2w"  >
<path style="stroke: none; stroke-width: 1; stroke-dasharray: none; stroke-linecap: butt; stroke-dashoffset: 0; stroke-linejoin: miter; stroke-miterlimit: 4; fill: rgb(201,159,159); fill-rule: nonzero; opacity: 1;" vector-effect="non-scaling-stroke"  transform=" translate(0, 0)" d="M -39.69595 -11.13568 L 39.69595 -68.86433 L -39.69595 68.86431999999999 z" stroke-linecap="round" />
</g>
</g>
</g>
<g transform="matrix(0.34 0.06 -0.06 0.34 102.59 55.75)" id="Wq7t9C4M-feNxaxotahKV"  >
<g style="" vector-effect="non-scaling-stroke"   >
		<g transform="matrix(0.24 0 0 0.4 13.16 -20.76)" id="x7KgAdZqrb3562tk3GzGA"  >
<path style="stroke: none; stroke-width: 1; stroke-dasharray: none; stroke-linecap: butt; stroke-dashoffset: 0; stroke-linejoin: miter; stroke-miterlimit: 4; fill: rgb(255,153,153); fill-rule: nonzero; opacity: 1;" vector-effect="non-scaling-stroke"  transform=" translate(0, 0)" d="M -54.64436 -54.93761 L 54.64436 54.93762 L -54.64436 25.062390000000004 z" stroke-linecap="round" />
</g>
		<g transform="matrix(0.33 0 0 0.15 13.16 2.7)" id="jeR1htwSYBGnunP223Cii"  >
<path style="stroke: none; stroke-width: 1; stroke-dasharray: none; stroke-linecap: butt; stroke-dashoffset: 0; stroke-linejoin: miter; stroke-miterlimit: 4; fill: rgb(217,122,122); fill-rule: nonzero; opacity: 1;" vector-effect="non-scaling-stroke"  transform=" translate(0, 0)" d="M -39.85927 -90.06274 L 39.85927 -11.334890000000001 L -39.85927 90.06275 z" stroke-linecap="round" />
</g>
		<g transform="matrix(0.33 0 0 0.27 13.17 24.15)" id="fVUBFH2WEXeYWWAnVLnmO"  >
<path style="stroke: none; stroke-width: 1; stroke-dasharray: none; stroke-linecap: butt; stroke-dashoffset: 0; stroke-linejoin: miter; stroke-miterlimit: 4; fill: rgb(255,153,153); fill-rule: nonzero; opacity: 1;" vector-effect="non-scaling-stroke"  transform=" translate(0, 0)" d="M -39.69595 -11.13568 L 39.69595 -68.86433 L -39.69595 68.86431999999999 z" stroke-linecap="round" />
</g>
		<g transform="matrix(-0.24 0 0 0.4 -13.16 -20.76)" id="mNcms9vVBqkwK21hxBQ6L"  >
<path style="stroke: none; stroke-width: 1; stroke-dasharray: none; stroke-linecap: butt; stroke-dashoffset: 0; stroke-linejoin: miter; stroke-miterlimit: 4; fill: rgb(201,159,159); fill-rule: nonzero; opacity: 1;" vector-effect="non-scaling-stroke"  transform=" translate(0, 0)" d="M -54.64436 -54.93761 L 54.64436 54.93762 L -54.64436 25.062390000000004 z" stroke-linecap="round" />
</g>
		<g transform="matrix(-0.33 0 0 0.15 -13.16 2.7)" id="WsER0DWZdCUHh0AAuJHUO"  >
<path style="stroke: none; stroke-width: 1; stroke-dasharray: none; stroke-linecap: butt; stroke-dashoffset: 0; stroke-linejoin: miter; stroke-miterlimit: 4; fill: rgb(255,153,153); fill-rule: nonzero; opacity: 1;" vector-effect="non-scaling-stroke"  transform=" translate(0, 0)" d="M -39.85927 -90.06274 L 39.85927 -11.334890000000001 L -39.85927 90.06275 z" stroke-linecap="round" />
</g>
		<g transform="matrix(-0.33 0 0 0.27 -13.17 24.15)" id="-SuWNwc9U8QX14cE3usGV"  >
<path style="stroke: none; stroke-width: 1; stroke-dasharray: none; stroke-linecap: butt; stroke-dashoffset: 0; stroke-linejoin: miter; stroke-miterlimit: 4; fill: rgb(201,159,159); fill-rule: nonzero; opacity: 1;" vector-effect="non-scaling-stroke"  transform=" translate(0, 0)" d="M -39.69595 -11.13568 L 39.69595 -68.86433 L -39.69595 68.86431999999999 z" stroke-linecap="round" />
</g>
</g>
</g>
<g transform="matrix(0.14 -0.12 0.12 0.14 84.62 61.41)" id="I_cXWH_vjAjg4ru4OKx_L"  >
<g style="" vector-effect="non-scaling-stroke"   >
		<g transform="matrix(0.24 0 0 0.4 13.16 -20.76)" id="AiSp-D7e-576Tc8PxiJ8j"  >
<path style="stroke: none; stroke-width: 1; stroke-dasharray: none; stroke-linecap: butt; stroke-dashoffset: 0; stroke-linejoin: miter; stroke-miterlimit: 4; fill: rgb(255,153,153); fill-rule: nonzero; opacity: 1;" vector-effect="non-scaling-stroke"  transform=" translate(0, 0)" d="M -54.64436 -54.93761 L 54.64436 54.93762 L -54.64436 25.062390000000004 z" stroke-linecap="round" />
</g>
		<g transform="matrix(0.33 0 0 0.15 13.16 2.7)" id="aJMqbYi_vHNcSSESj5dnr"  >
<path style="stroke: none; stroke-width: 1; stroke-dasharray: none; stroke-linecap: butt; stroke-dashoffset: 0; stroke-linejoin: miter; stroke-miterlimit: 4; fill: rgb(217,122,122); fill-rule: nonzero; opacity: 1;" vector-effect="non-scaling-stroke"  transform=" translate(0, 0)" d="M -39.85927 -90.06274 L 39.85927 -11.334890000000001 L -39.85927 90.06275 z" stroke-linecap="round" />
</g>
		<g transform="matrix(0.33 0 0 0.27 13.17 24.15)" id="As6egARbYw3ycJx3N52Ma"  >
<path style="stroke: none; stroke-width: 1; stroke-dasharray: none; stroke-linecap: butt; stroke-dashoffset: 0; stroke-linejoin: miter; stroke-miterlimit: 4; fill: rgb(255,153,153); fill-rule: nonzero; opacity: 1;" vector-effect="non-scaling-stroke"  transform=" translate(0, 0)" d="M -39.69595 -11.13568 L 39.69595 -68.86433 L -39.69595 68.86431999999999 z" stroke-linecap="round" />
</g>
		<g transform="matrix(-0.24 0 0 0.4 -13.16 -20.76)" id="__eACfnI0KsK4V_8tEs24"  >
<path style="stroke: none; stroke-width: 1; stroke-dasharray: none; stroke-linecap: butt; stroke-dashoffset: 0; stroke-linejoin: miter; stroke-miterlimit: 4; fill: rgb(201,159,159); fill-rule: nonzero; opacity: 1;" vector-effect="non-scaling-stroke"  transform=" translate(0, 0)" d="M -54.64436 -54.93761 L 54.64436 54.93762 L -54.64436 25.062390000000004 z" stroke-linecap="round" />
</g>
		<g transform="matrix(-0.33 0 0 0.15 -13.16 2.7)" id="-zgT6PVY2VmrO6_se1E-L"  >
<path style="stroke: none; stroke-width: 1; stroke-dasharray: none; stroke-linecap: butt; stroke-dashoffset: 0; stroke-linejoin: miter; stroke-miterlimit: 4; fill: rgb(255,153,153); fill-rule: nonzero; opacity: 1;" vector-effect="non-scaling-stroke"  transform=" translate(0, 0)" d="M -39.85927 -90.06274 L 39.85927 -11.334890000000001 L -39.85927 90.06275 z" stroke-linecap="round" />
</g>
		<g transform="matrix(-0.33 0 0 0.27 -13.17 24.15)" id="3YTV61nm_Srr5OIa8H3M8"  >
<path style="stroke: none; stroke-width: 1; stroke-dasharray: none; stroke-linecap: butt; stroke-dashoffset: 0; stroke-linejoin: miter; stroke-miterlimit: 4; fill: rgb(201,159,159); fill-rule: nonzero; opacity: 1;" vector-effect="non-scaling-stroke"  transform=" translate(0, 0)" d="M -39.69595 -11.13568 L 39.69595 -68.86433 L -39.69595 68.86431999999999 z" stroke-linecap="round" />
</g>
</g>
</g>
<g transform="matrix(0.19 0.11 -0.11 0.19 120.69 42.38)" id="GieB11HuPhlWidbYfKzXO"  >
<g style="" vector-effect="non-scaling-stroke"   >
		<g transform="matrix(0.24 0 0 0.4 13.16 -20.76)" id="1RScK81EYtp4XtT-21DeP"  >
<path style="stroke: none; stroke-width: 1; stroke-dasharray: none; stroke-linecap: butt; stroke-dashoffset: 0; stroke-linejoin: miter; stroke-miterlimit: 4; fill: rgb(255,153,153); fill-rule: nonzero; opacity: 1;" vector-effect="non-scaling-stroke"  transform=" translate(0, 0)" d="M -54.64436 -54.93761 L 54.64436 54.93762 L -54.64436 25.062390000000004 z" stroke-linecap="round" />
</g>
		<g transform="matrix(0.33 0 0 0.15 13.16 2.7)" id="XMia0C5Ph9me0-cppY2Dc"  >
<path style="stroke: none; stroke-width: 1; stroke-dasharray: none; stroke-linecap: butt; stroke-dashoffset: 0; stroke-linejoin: miter; stroke-miterlimit: 4; fill: rgb(217,122,122); fill-rule: nonzero; opacity: 1;" vector-effect="non-scaling-stroke"  transform=" translate(0, 0)" d="M -39.85927 -90.06274 L 39.85927 -11.334890000000001 L -39.85927 90.06275 z" stroke-linecap="round" />
</g>
		<g transform="matrix(0.33 0 0 0.27 13.17 24.15)" id="ru7fVCr-Yf6FCEuXx9AhA"  >
<path style="stroke: none; stroke-width: 1; stroke-dasharray: none; stroke-linecap: butt; stroke-dashoffset: 0; stroke-linejoin: miter; stroke-miterlimit: 4; fill: rgb(255,153,153); fill-rule: nonzero; opacity: 1;" vector-effect="non-scaling-stroke"  transform=" translate(0, 0)" d="M -39.69595 -11.13568 L 39.69595 -68.86433 L -39.69595 68.86431999999999 z" stroke-linecap="round" />
</g>
		<g transform="matrix(-0.24 0 0 0.4 -13.16 -20.76)" id="G3S1ICtlfcdX90SnYuNOs"  >
<path style="stroke: none; stroke-width: 1; stroke-dasharray: none; stroke-linecap: butt; stroke-dashoffset: 0; stroke-linejoin: miter; stroke-miterlimit: 4; fill: rgb(201,159,159); fill-rule: nonzero; opacity: 1;" vector-effect="non-scaling-stroke"  transform=" translate(0, 0)" d="M -54.64436 -54.93761 L 54.64436 54.93762 L -54.64436 25.062390000000004 z" stroke-linecap="round" />
</g>
		<g transform="matrix(-0.33 0 0 0.15 -13.16 2.7)" id="9J4yF9CegQdiKBRJGZnTs"  >
<path style="stroke: none; stroke-width: 1; stroke-dasharray: none; stroke-linecap: butt; stroke-dashoffset: 0; stroke-linejoin: miter; stroke-miterlimit: 4; fill: rgb(255,153,153); fill-rule: nonzero; opacity: 1;" vector-effect="non-scaling-stroke"  transform=" translate(0, 0)" d="M -39.85927 -90.06274 L 39.85927 -11.334890000000001 L -39.85927 90.06275 z" stroke-linecap="round" />
</g>
		<g transform="matrix(-0.33 0 0 0.27 -13.17 24.15)" id="qTRNXE_3LmWCL1JiwjfYw"  >
<path style="stroke: none; stroke-width: 1; stroke-dasharray: none; stroke-linecap: butt; stroke-dashoffset: 0; stroke-linejoin: miter; stroke-miterlimit: 4; fill: rgb(201,159,159); fill-rule: nonzero; opacity: 1;" vector-effect="non-scaling-stroke"  transform=" translate(0, 0)" d="M -39.69595 -11.13568 L 39.69595 -68.86433 L -39.69595 68.86431999999999 z" stroke-linecap="round" />
</g>
</g>
</g>
<g transform="matrix(0.34 -0.06 0.06 0.34 89.42 23.01)" id="BRaEt_luoos6R73t2hMgH"  >
<g style="" vector-effect="non-scaling-stroke"   >
		<g transform="matrix(0.24 0 0 0.4 13.16 -20.76)" id="Yiv9hQLQ-wnm5GHm0uZPb"  >
<path style="stroke: none; stroke-width: 1; stroke-dasharray: none; stroke-linecap: butt; stroke-dashoffset: 0; stroke-linejoin: miter; stroke-miterlimit: 4; fill: rgb(255,153,153); fill-rule: nonzero; opacity: 1;" vector-effect="non-scaling-stroke"  transform=" translate(0, 0)" d="M -54.64436 -54.93761 L 54.64436 54.93762 L -54.64436 25.062390000000004 z" stroke-linecap="round" />
</g>
		<g transform="matrix(0.33 0 0 0.15 13.16 2.7)" id="znlZXoxpVKUHb8O3m0EAL"  >
<path style="stroke: none; stroke-width: 1; stroke-dasharray: none; stroke-linecap: butt; stroke-dashoffset: 0; stroke-linejoin: miter; stroke-miterlimit: 4; fill: rgb(217,122,122); fill-rule: nonzero; opacity: 1;" vector-effect="non-scaling-stroke"  transform=" translate(0, 0)" d="M -39.85927 -90.06274 L 39.85927 -11.334890000000001 L -39.85927 90.06275 z" stroke-linecap="round" />
</g>
		<g transform="matrix(0.33 0 0 0.27 13.17 24.15)" id="xyLm6Y7Dlg5xecxxiaZ8q"  >
<path style="stroke: none; stroke-width: 1; stroke-dasharray: none; stroke-linecap: butt; stroke-dashoffset: 0; stroke-linejoin: miter; stroke-miterlimit: 4; fill: rgb(255,153,153); fill-rule: nonzero; opacity: 1;" vector-effect="non-scaling-stroke"  transform=" translate(0, 0)" d="M -39.69595 -11.13568 L 39.69595 -68.86433 L -39.69595 68.86431999999999 z" stroke-linecap="round" />
</g>
		<g transform="matrix(-0.24 0 0 0.4 -13.16 -20.76)" id="gkABu5RqEU-580y2m_E5z"  >
<path style="stroke: none; stroke-width: 1; stroke-dasharray: none; stroke-linecap: butt; stroke-dashoffset: 0; stroke-linejoin: miter; stroke-miterlimit: 4; fill: rgb(201,159,159); fill-rule: nonzero; opacity: 1;" vector-effect="non-scaling-stroke"  transform=" translate(0, 0)" d="M -54.64436 -54.93761 L 54.64436 54.93762 L -54.64436 25.062390000000004 z" stroke-linecap="round" />
</g>
		<g transform="matrix(-0.33 0 0 0.15 -13.16 2.7)" id="J-HNFMxlDnVkgw6VFQquL"  >
<path style="stroke: none; stroke-width: 1; stroke-dasharray: none; stroke-linecap: butt; stroke-dashoffset: 0; stroke-linejoin: miter; stroke-miterlimit: 4; fill: rgb(255,153,153); fill-rule: nonzero; opacity: 1;" vector-effect="non-scaling-stroke"  transform=" translate(0, 0)" d="M -39.85927 -90.06274 L 39.85927 -11.334890000000001 L -39.85927 90.06275 z" stroke-linecap="round" />
</g>
		<g transform="matrix(-0.33 0 0 0.27 -13.17 24.15)" id="CXqYX2yqG6QnO_fj9jDwf"  >
<path style="stroke: none; stroke-width: 1; stroke-dasharray: none; stroke-linecap: butt; stroke-dashoffset: 0; stroke-linejoin: miter; stroke-miterlimit: 4; fill: rgb(201,159,159); fill-rule: nonzero; opacity: 1;" vector-effect="non-scaling-stroke"  transform=" translate(0, 0)" d="M -39.69595 -11.13568 L 39.69595 -68.86433 L -39.69595 68.86431999999999 z" stroke-linecap="round" />
</g>
</g>
</g>
<g transform="matrix(0.2 0.2 -0.2 0.2 127.61 59.23)" id="0T9DDx8_wrYyjLoQukg8n"  >
<g style="" vector-effect="non-scaling-stroke"   >
		<g transform="matrix(0.24 0 0 0.4 13.16 -20.76)" id="H-wbcHnnUKeJZT9MIYV_U"  >
<path style="stroke: none; stroke-width: 1; stroke-dasharray: none; stroke-linecap: butt; stroke-dashoffset: 0; stroke-linejoin: miter; stroke-miterlimit: 4; fill: rgb(255,153,153); fill-rule: nonzero; opacity: 1;" vector-effect="non-scaling-stroke"  transform=" translate(0, 0)" d="M -54.64436 -54.93761 L 54.64436 54.93762 L -54.64436 25.062390000000004 z" stroke-linecap="round" />
</g>
		<g transform="matrix(0.33 0 0 0.15 13.16 2.7)" id="dxbnzQ09APIaojVaR013v"  >
<path style="stroke: none; stroke-width: 1; stroke-dasharray: none; stroke-linecap: butt; stroke-dashoffset: 0; stroke-linejoin: miter; stroke-miterlimit: 4; fill: rgb(217,122,122); fill-rule: nonzero; opacity: 1;" vector-effect="non-scaling-stroke"  transform=" translate(0, 0)" d="M -39.85927 -90.06274 L 39.85927 -11.334890000000001 L -39.85927 90.06275 z" stroke-linecap="round" />
</g>
		<g transform="matrix(0.33 0 0 0.27 13.17 24.15)" id="eAixg1TeYl_-wfDeOqOw3"  >
<path style="stroke: none; stroke-width: 1; stroke-dasharray: none; stroke-linecap: butt; stroke-dashoffset: 0; stroke-linejoin: miter; stroke-miterlimit: 4; fill: rgb(255,153,153); fill-rule: nonzero; opacity: 1;" vector-effect="non-scaling-stroke"  transform=" translate(0, 0)" d="M -39.69595 -11.13568 L 39.69595 -68.86433 L -39.69595 68.86431999999999 z" stroke-linecap="round" />
</g>
		<g transform="matrix(-0.24 0 0 0.4 -13.16 -20.76)" id="pg8ykYvclW56FOX0mNoqD"  >
<path style="stroke: none; stroke-width: 1; stroke-dasharray: none; stroke-linecap: butt; stroke-dashoffset: 0; stroke-linejoin: miter; stroke-miterlimit: 4; fill: rgb(201,159,159); fill-rule: nonzero; opacity: 1;" vector-effect="non-scaling-stroke"  transform=" translate(0, 0)" d="M -54.64436 -54.93761 L 54.64436 54.93762 L -54.64436 25.062390000000004 z" stroke-linecap="round" />
</g>
		<g transform="matrix(-0.33 0 0 0.15 -13.16 2.7)" id="7RRvHo--tHabAxYovjdgf"  >
<path style="stroke: none; stroke-width: 1; stroke-dasharray: none; stroke-linecap: butt; stroke-dashoffset: 0; stroke-linejoin: miter; stroke-miterlimit: 4; fill: rgb(255,153,153); fill-rule: nonzero; opacity: 1;" vector-effect="non-scaling-stroke"  transform=" translate(0, 0)" d="M -39.85927 -90.06274 L 39.85927 -11.334890000000001 L -39.85927 90.06275 z" stroke-linecap="round" />
</g>
		<g transform="matrix(-0.33 0 0 0.27 -13.17 24.15)" id="v9iebfTLxiAXFSiqJgls4"  >
<path style="stroke: none; stroke-width: 1; stroke-dasharray: none; stroke-linecap: butt; stroke-dashoffset: 0; stroke-linejoin: miter; stroke-miterlimit: 4; fill: rgb(201,159,159); fill-rule: nonzero; opacity: 1;" vector-effect="non-scaling-stroke"  transform=" translate(0, 0)" d="M -39.69595 -11.13568 L 39.69595 -68.86433 L -39.69595 68.86431999999999 z" stroke-linecap="round" />
</g>
</g>
</g>
<g transform="matrix(0.47 0 0 0.47 99.87 100)" id="LYNbd-IqzzXYkyOlosLch"  >
<path style="stroke: rgb(255,153,153); stroke-width: 7; stroke-dasharray: none; stroke-linecap: butt; stroke-dashoffset: 0; stroke-linejoin: miter; stroke-miterlimit: 4; fill: rgb(217,122,122); fill-opacity: 0; fill-rule: nonzero; opacity: 1;" vector-effect="non-scaling-stroke"  transform=" translate(0, 0)" d="M 0 -208.8983 C 115.31186 -208.8983 208.8983 -115.31186000000001 208.8983 0 C 208.8983 115.31186 115.31186000000001 208.8983 0 208.8983 C -115.31186 208.8983 -208.8983 115.31186000000001 -208.8983 0 C -208.8983 -115.31186 -115.31186000000001 -208.8983 0 -208.8983 z" stroke-linecap="round" />
</g>
<g transform="matrix(0.07 0.14 -0.14 0.07 91.85 73.35)" id="MxkfPpiR6IUk5AP3pwtlI"  >
<path style="stroke: rgb(255,153,153); stroke-width: 0; stroke-dasharray: none; stroke-linecap: butt; stroke-dashoffset: 0; stroke-linejoin: miter; stroke-miterlimit: 4; fill: rgb(0,0,0); fill-rule: nonzero; opacity: 1;" vector-effect="non-scaling-stroke"  transform=" translate(0, 0)" d="M -24.03846 -24.03846 L 24.03846 -24.03846 L 24.03846 24.03846 L -24.03846 24.03846 z" stroke-linecap="round" />
</g>
<g transform="matrix(0.16 0.06 -0.06 0.16 105.89 72.21)" id="7sceHXtAkqMhXtY1Meryr"  >
<path style="stroke: rgb(255,153,153); stroke-width: 0; stroke-dasharray: none; stroke-linecap: butt; stroke-dashoffset: 0; stroke-linejoin: miter; stroke-miterlimit: 4; fill: rgb(0,0,0); fill-rule: nonzero; opacity: 1;" vector-effect="non-scaling-stroke"  transform=" translate(0, 0)" d="M -24.03846 -24.03846 L 24.03846 -24.03846 L 24.03846 24.03846 L -24.03846 24.03846 z" stroke-linecap="round" />
</g>
<g transform="matrix(0.31 0 0 0.31 173.99 12.28)" id="8oG8fsZRCwvjAPmZl_Kwq"  >
<path style="stroke: rgb(7,136,74); stroke-width: 0; stroke-dasharray: none; stroke-linecap: butt; stroke-dashoffset: 0; stroke-linejoin: miter; stroke-miterlimit: 4; fill: rgb(0,0,0); fill-rule: nonzero; opacity: 1;" vector-effect="non-scaling-stroke"  transform=" translate(0, 0)" d="M -29.92701 -29.92701 L 29.927000000000003 -29.92701 L 29.927000000000003 29.927000000000003 L -29.92701 29.927000000000003 z" stroke-linecap="round" />
</g>
<g transform="matrix(0.31 0 0 0.37 26.4 11.77)" id="v2OB6h3EzFYNfVGplUsVV"  >
<path style="stroke: rgb(7,136,74); stroke-width: 0; stroke-dasharray: none; stroke-linecap: butt; stroke-dashoffset: 0; stroke-linejoin: miter; stroke-miterlimit: 4; fill: rgb(0,0,0); fill-rule: nonzero; opacity: 1;" vector-effect="non-scaling-stroke"  transform=" translate(0, 0)" d="M -29.92701 -29.92701 L 29.927000000000003 -29.92701 L 29.927000000000003 29.927000000000003 L -29.92701 29.927000000000003 z" stroke-linecap="round" />
</g>
<g transform="matrix(0.31 0 0 0.31 99.45 100)" id="klBlIUbNc8DwvsTJ87HJb"  >
<path style="stroke: rgb(57,97,48); stroke-width: 0; stroke-dasharray: none; stroke-linecap: butt; stroke-dashoffset: 0; stroke-linejoin: miter; stroke-miterlimit: 4; fill: rgb(255,255,255); fill-opacity: 0.31; fill-rule: nonzero; opacity: 1;" vector-effect="non-scaling-stroke"  transform=" translate(0, 0)" d="M 0 -318.20224 C 175.64764 -318.20224 318.20224 -175.64763000000002 318.20224 0 C 318.20224 175.64764 175.64763000000002 318.20224 0 318.20224 C -175.64764 318.20224 -318.20224 175.64763000000002 -318.20224 0 C -318.20224 -175.64764 -175.64763000000002 -318.20224 0 -318.20224 z" stroke-linecap="round" />
</g>
<g transform="matrix(1 0 0 1 728.84 129.91)" id="WO8ItINdacp8YEtUKDJH7"  >
<path style="stroke: rgb(174,12,56); stroke-width: 0; stroke-dasharray: none; stroke-linecap: butt; stroke-dashoffset: 0; stroke-linejoin: miter; stroke-miterlimit: 4; fill: rgb(79,79,79); fill-rule: nonzero; opacity: 1;" vector-effect="non-scaling-stroke"  transform=" translate(-25.79, -25.79)" d="M 0 0 L 51.58209 0 L 51.58209 51.58209 L 0 51.58209 z" stroke-linecap="round" />
</g>
</svg>