<?xml version="1.0" encoding="UTF-8" standalone="no" ?>
<!DOCTYPE svg PUBLIC "-//W3C//DTD SVG 1.1//EN" "http://www.w3.org/Graphics/SVG/1.1/DTD/svg11.dtd">
<svg xmlns="http://www.w3.org/2000/svg" xmlns:xlink="http://www.w3.org/1999/xlink" version="1.1" width="640" height="640" viewBox="0 0 640 640" xml:space="preserve">
<desc>Created with Fabric.js 4.6.0</desc>
<defs>
</defs>
<g transform="matrix(4.68 0 0 4.67 319.97 396.05)" id="05J3VoD5FQcb9NzqauDmr"  >
<path style="stroke: none; stroke-width: 1; stroke-dasharray: none; stroke-linecap: butt; stroke-dashoffset: 0; stroke-linejoin: miter; stroke-miterlimit: 4; fill: rgb(77,40,0); fill-rule: nonzero; opacity: 1;" vector-effect="non-scaling-stroke"  transform=" translate(0, 0)" d="M 20 -6.64773 L 40 33.35227 L 0 33.35227 L -40 33.35227 L -20 -6.647730000000003 L -9.6215 -27.404730000000004 L -9.6215 -27.404730000000004 C -7.7989299999999995 -31.049860000000002 -4.074259999999999 -33.352270000000004 0 -33.352270000000004 C 4.07426 -33.352270000000004 7.79894 -31.049860000000002 9.6215 -27.404730000000004 z" stroke-linecap="round" />
</g>
<g transform="matrix(2.32 0 0 0.95 319.97 554.4)" id="Ag9vUIuMsAF0eOfFQFcTx"  >
<path style="stroke: rgb(130,68,107); stroke-width: 0; stroke-dasharray: none; stroke-linecap: butt; stroke-dashoffset: 0; stroke-linejoin: miter; stroke-miterlimit: 4; fill: rgb(77,40,0); fill-rule: nonzero; opacity: 1;" vector-effect="non-scaling-stroke"  transform=" translate(0, 0)" d="M -72.76061 -14.25771 C -63.19838 -48.449439999999996 -36.65814 -81.18468 0.5720799999999997 -81.18468 C 38.6917 -81.18468 62.40718 -44.4602 71.12004 -9.016369999999995 C 72.65014000000001 -2.7919499999999946 80.61261 -6.6943299999999955 80.61261 -0.000009999999994292352 C 80.61261 44.813930000000006 45.38602 81.18466000000001 0.5720799999999997 81.18466000000001 C -44.24186 81.18466000000001 -80.61259 44.813930000000006 -80.61259 -0.000009999999988963282 C -80.61259 -7.583739999999989 -74.70841 -7.292919999999989 -72.7606 -14.257719999999988 z" stroke-linecap="round" />
</g>
<g transform="matrix(1.89 0 0 1.89 398.67 418.43)" id="4dGEoE9hSD9xCnavNIu3e"  >
<path style="stroke: rgb(255,153,153); stroke-width: 8; stroke-dasharray: none; stroke-linecap: butt; stroke-dashoffset: 0; stroke-linejoin: miter; stroke-miterlimit: 4; fill: rgb(255,255,255); fill-opacity: 0; fill-rule: nonzero; opacity: 1;" vector-effect="non-scaling-stroke"  transform=" translate(0, 0)" d="M -41.1763 -94.42461 L -41.1763 -67.71638 C -41.1763 -63.03346 -40.284369999999996 -58.39341 -38.54821 -54.04445 L -34.11358 -42.93599 L -34.11358 -42.93599 C -33.182629999999996 -40.60402 -31.640549999999998 -38.566179999999996 -29.64959 -37.036899999999996 L -16.67535 -27.07118 L -16.67535 -27.07118 C -11.423860000000001 -23.037429999999997 -7.368440000000001 -17.650389999999998 -4.943600000000002 -11.487249999999998 L -0.2871200000000016 0.3479700000000019 L 2.7664599999999986 6.309710000000002 L 2.7664599999999986 6.309710000000002 C 5.556159999999998 11.75627 6.8119999999999985 17.859440000000003 6.3994399999999985 23.965380000000003 L 5.6213799999999985 35.480610000000006 L 5.6213799999999985 35.480610000000006 C 5.402029999999998 38.727050000000006 5.9439199999999985 41.979850000000006 7.203849999999998 44.97968 L 9.796349999999999 51.152300000000004 L 9.796349999999999 51.152300000000004 C 11.628049999999998 55.51348 14.703409999999998 59.23828 18.63845 61.861650000000004 L 23.92537 65.38627000000001 L 23.92537 65.38627000000001 C 27.457160000000002 67.74080000000001 30.25731 71.03981000000002 32.00715 74.90788 L 35.94981 83.62324000000001 L 41.17629 94.42463000000001" stroke-linecap="round" />
</g>
<g transform="matrix(1.98 0 0 1.92 240.2 362.64)" id="t0LNmtXBn0pfg5ljc76Fk"  >
<path style="stroke: rgb(255,153,153); stroke-width: 9; stroke-dasharray: none; stroke-linecap: butt; stroke-dashoffset: 0; stroke-linejoin: miter; stroke-miterlimit: 4; fill: rgb(255,255,255); fill-opacity: 0; fill-rule: nonzero; opacity: 1;" vector-effect="non-scaling-stroke"  transform=" translate(0, 0)" d="M 41.05103 -66.60467 L 30.825579999999995 -52.546369999999996 C 27.812119999999997 -48.40335999999999 25.554859999999994 -43.72973999999999 24.164069999999995 -38.753769999999996 L 21.416449999999994 -28.923379999999995 L 21.416449999999994 -28.923379999999995 C 19.636449999999993 -22.554939999999995 19.417729999999995 -15.830549999999995 20.779919999999994 -9.353479999999994 L 23.960979999999992 5.772120000000006 L 23.960979999999992 5.772120000000006 C 25.45667999999999 12.884000000000007 24.629109999999994 20.306180000000005 21.607159999999993 26.882690000000004 L 13.700059999999993 44.09053 L 13.700059999999993 44.09053 C 11.797729999999994 48.23048 8.456169999999993 51.48256 4.337649999999993 53.20223 L -6.324010000000007 57.65396 L -6.324010000000007 57.65396 C -10.822040000000007 59.53209 -15.471250000000007 60.999669999999995 -20.218160000000005 62.039809999999996 L -41.05102000000001 66.60468999999999" stroke-linecap="round" />
</g>
<g transform="matrix(1.9 0 0 1.94 268.07 545.23)" id="V9jHna0VsTd9TEV4dU4g9"  >
<path style="stroke: rgb(255,153,153); stroke-width: 9; stroke-dasharray: none; stroke-linecap: butt; stroke-dashoffset: 0; stroke-linejoin: miter; stroke-miterlimit: 4; fill: rgb(255,255,255); fill-opacity: 0; fill-rule: nonzero; opacity: 1;" vector-effect="non-scaling-stroke"  transform=" translate(0, 0)" d="M -2.86067 -44.27442 L 0.16454000000000013 -11.16518 L 2.8606800000000003 44.27441" stroke-linecap="round" />
</g>
<g transform="matrix(1.9 0 0 1.9 374.67 504.79)" id="zVNbdJS3dsbXqc065oMIm"  >
<path style="stroke: rgb(255,153,153); stroke-width: 9; stroke-dasharray: none; stroke-linecap: butt; stroke-dashoffset: 0; stroke-linejoin: miter; stroke-miterlimit: 4; fill: rgb(255,255,255); fill-opacity: 0; fill-rule: nonzero; opacity: 1;" vector-effect="non-scaling-stroke"  transform=" translate(0, 0)" d="M -50.02754 -42.2103 L -34.731880000000004 -12.915219999999998 C -31.714850000000006 -7.136839999999998 -28.143310000000003 -1.6655899999999981 -24.067680000000003 3.421280000000003 L -12.384240000000004 18.003620000000005 L -12.384240000000004 18.003620000000005 C -9.451130000000003 21.664500000000004 -5.319670000000004 24.171390000000006 -0.7188700000000043 25.081970000000005 L 13.287249999999995 27.854010000000006 L 13.287249999999995 27.854010000000006 C 20.684689999999996 29.318090000000005 27.872089999999993 31.694180000000006 34.68492 34.927890000000005 L 50.02755 42.210280000000004" stroke-linecap="round" />
</g>
<g transform="matrix(2.02 0 0 2.02 365.84 591.36)" id="OzMWuwQ4f8reQJEy4LzaA"  >
<path style="stroke: rgb(255,153,153); stroke-width: 9; stroke-dasharray: none; stroke-linecap: butt; stroke-dashoffset: 0; stroke-linejoin: miter; stroke-miterlimit: 4; fill: rgb(255,255,255); fill-opacity: 0; fill-rule: nonzero; opacity: 1;" vector-effect="non-scaling-stroke"  transform=" translate(0, 0)" d="M -3.36134 -20.99642 L 3.36135 8.226119999999998 L -1.3622899999999998 20.996409999999997" stroke-linecap="round" />
</g>
<g transform="matrix(10.37 5.19 -28.45 56.8 191.93 338.05)" id="-k24-tZ7XQnrhnvdExfOA"  >
<path style="stroke: rgb(255,153,153); stroke-width: 0; stroke-dasharray: none; stroke-linecap: butt; stroke-dashoffset: 0; stroke-linejoin: miter; stroke-miterlimit: 4; fill: rgb(0,0,0); fill-rule: nonzero; opacity: 1;" vector-effect="non-scaling-stroke"  transform=" translate(0, 0)" d="M -3.78151 -3.78151 L 3.78151 -3.78151 L 3.78151 3.78151 L -3.78151 3.78151 z" stroke-linecap="round" />
</g>
<g transform="matrix(10.38 -5.2 28.46 56.81 453.38 348.75)" id="tVTvSWzDUzHDZKsVchBjt"  >
<path style="stroke: rgb(255,153,153); stroke-width: 0; stroke-dasharray: none; stroke-linecap: butt; stroke-dashoffset: 0; stroke-linejoin: miter; stroke-miterlimit: 4; fill: rgb(0,0,0); fill-rule: nonzero; opacity: 1;" vector-effect="non-scaling-stroke"  transform=" translate(0, 0)" d="M -3.78151 -3.78151 L 3.78151 -3.78151 L 3.78151 3.78151 L -3.78151 3.78151 z" stroke-linecap="round" />
</g>
<g transform="matrix(3.6 0 0 0.48 319.97 596.96)" id="FsnQw2HGLW1hPxZbbSUFn"  >
<path style="stroke: rgb(255,153,153); stroke-width: 0; stroke-dasharray: none; stroke-linecap: butt; stroke-dashoffset: 0; stroke-linejoin: miter; stroke-miterlimit: 4; fill: rgb(0,0,0); fill-rule: nonzero; opacity: 1;" vector-effect="non-scaling-stroke"  transform=" translate(0, 0)" d="M -88.70293 -88.70293 L 88.70291999999999 -88.70293 L 88.70291999999999 88.70291999999999 L -88.70293 88.70291999999999 z" stroke-linecap="round" />
</g>
<g transform="matrix(2.42 0 0 15.62 45.51 289.01)" id="f5xn0U_r3ULkoVGYKHtDp"  >
<path style="stroke: rgb(255,153,153); stroke-width: 0; stroke-dasharray: none; stroke-linecap: butt; stroke-dashoffset: 0; stroke-linejoin: miter; stroke-miterlimit: 4; fill: rgb(0,0,0); fill-rule: nonzero; opacity: 1;" vector-effect="non-scaling-stroke"  transform=" translate(0, 0)" d="M -18.41004 -18.41004 L 18.41004 -18.41004 L 18.41004 18.41004 L -18.41004 18.41004 z" stroke-linecap="round" />
</g>
<g transform="matrix(3.56 0 0 17.33 573.5 320.53)" id="zvF34fuqPZJTPd4t_jsap"  >
<path style="stroke: rgb(255,153,153); stroke-width: 0; stroke-dasharray: none; stroke-linecap: butt; stroke-dashoffset: 0; stroke-linejoin: miter; stroke-miterlimit: 4; fill: rgb(0,0,0); fill-rule: nonzero; opacity: 1;" vector-effect="non-scaling-stroke"  transform=" translate(0, 0)" d="M -18.41004 -18.41004 L 18.41004 -18.41004 L 18.41004 18.41004 L -18.41004 18.41004 z" stroke-linecap="round" />
</g>
<g transform="matrix(1.91 0 0 0.77 299.04 85.97)" id="zg0HDfvb4RM7rvomFEvkS"  >
<path style="stroke: rgb(255,153,153); stroke-width: 0; stroke-dasharray: none; stroke-linecap: butt; stroke-dashoffset: 0; stroke-linejoin: miter; stroke-miterlimit: 4; fill: rgb(0,0,0); fill-rule: nonzero; opacity: 1;" vector-effect="non-scaling-stroke"  transform=" translate(0, 0)" d="M -109.20502 -109.20502 L 109.20503000000001 -109.20502 L 109.20503000000001 109.20503000000001 L -109.20502 109.20503000000001 z" stroke-linecap="round" />
</g>
<g transform="matrix(1.65 0.95 -0.95 1.65 27.89 283.4)" id="QPWFWNnAPOhpcp6Lt94kK"  >
<path style="stroke: rgb(255,153,153); stroke-width: 0; stroke-dasharray: none; stroke-linecap: butt; stroke-dashoffset: 0; stroke-linejoin: miter; stroke-miterlimit: 4; fill: rgb(0,0,0); fill-rule: nonzero; opacity: 1;" vector-effect="non-scaling-stroke"  transform=" translate(0, 0)" d="M -84.46361 -117.85931 L 84.46361 -106.45102999999999 L 84.46361 68.86278 L 51.628600000000006 117.85931 z" stroke-linecap="round" />
</g>
<g transform="matrix(1.65 -0.95 0.95 1.65 557.76 225.95)" id="d-FNwMCJ7TZPt2hrxd4UX"  >
<path style="stroke: rgb(255,153,153); stroke-width: 0; stroke-dasharray: none; stroke-linecap: butt; stroke-dashoffset: 0; stroke-linejoin: miter; stroke-miterlimit: 4; fill: rgb(0,0,0); fill-rule: nonzero; opacity: 1;" vector-effect="non-scaling-stroke"  transform=" translate(0, 0)" d="M -87.65691 -87.65691 L 87.6569 -87.65691 L 53.669129999999996 -28.788369999999993 L -87.65691000000001 87.65690000000001 z" stroke-linecap="round" />
</g>
<g transform="matrix(1.5 -1.17 1.17 1.5 389 192.87)" id="193c_nmQquniKmPi6GewZ"  >
<path style="stroke: rgb(255,153,153); stroke-width: 0; stroke-dasharray: none; stroke-linecap: butt; stroke-dashoffset: 0; stroke-linejoin: miter; stroke-miterlimit: 4; fill: rgb(0,0,0); fill-rule: nonzero; opacity: 1;" vector-effect="non-scaling-stroke"  transform=" translate(0, 0)" d="M -33.4728 -33.4728 L 33.47281 -33.4728 L 33.47281 33.47281 L -33.4728 33.47281 z" stroke-linecap="round" />
</g>
<g transform="matrix(1.37 -1.32 1.32 1.37 376.4 186.51)" id="MptdfgeRlYnxjcTT-TMEf"  >
<path style="stroke: rgb(255,153,153); stroke-width: 0; stroke-dasharray: none; stroke-linecap: butt; stroke-dashoffset: 0; stroke-linejoin: miter; stroke-miterlimit: 4; fill: rgb(0,0,0); fill-rule: nonzero; opacity: 1;" vector-effect="non-scaling-stroke"  transform=" translate(0, 0)" d="M -33.4728 -33.4728 L 33.47281 -33.4728 L 33.47281 33.47281 L -33.4728 33.47281 z" stroke-linecap="round" />
</g>
<g transform="matrix(1.17 -1.5 1.5 1.17 377.06 191.28)" id="_CliFmj8tFG2hneT-3IjY"  >
<path style="stroke: rgb(255,153,153); stroke-width: 0; stroke-dasharray: none; stroke-linecap: butt; stroke-dashoffset: 0; stroke-linejoin: miter; stroke-miterlimit: 4; fill: rgb(0,0,0); fill-rule: nonzero; opacity: 1;" vector-effect="non-scaling-stroke"  transform=" translate(0, 0)" d="M -33.4728 -33.4728 L 33.47281 -33.4728 L 33.47281 33.47281 L -33.4728 33.47281 z" stroke-linecap="round" />
</g>
<g transform="matrix(0.98 -1.63 1.63 0.98 366.08 185)" id="iC-fAJN9FTyGZdBiYojBk"  >
<path style="stroke: rgb(255,153,153); stroke-width: 0; stroke-dasharray: none; stroke-linecap: butt; stroke-dashoffset: 0; stroke-linejoin: miter; stroke-miterlimit: 4; fill: rgb(0,0,0); fill-rule: nonzero; opacity: 1;" vector-effect="non-scaling-stroke"  transform=" translate(0, 0)" d="M -33.4728 -33.4728 L 33.47281 -33.4728 L 33.47281 33.47281 L -33.4728 33.47281 z" stroke-linecap="round" />
</g>
<g transform="matrix(0.77 -1.74 1.74 0.77 359.06 182.98)" id="PlGJBZJ2ZXoIPc2q7fve0"  >
<path style="stroke: rgb(255,153,153); stroke-width: 0; stroke-dasharray: none; stroke-linecap: butt; stroke-dashoffset: 0; stroke-linejoin: miter; stroke-miterlimit: 4; fill: rgb(0,0,0); fill-rule: nonzero; opacity: 1;" vector-effect="non-scaling-stroke"  transform=" translate(0, 0)" d="M -33.4728 -33.4728 L 33.47281 -33.4728 L 33.47281 33.47281 L -33.4728 33.47281 z" stroke-linecap="round" />
</g>
<g transform="matrix(0.59 -1.81 1.81 0.59 357.56 182.34)" id="cEh3M2YRkU0x4YJQiR5sS"  >
<path style="stroke: rgb(255,153,153); stroke-width: 0; stroke-dasharray: none; stroke-linecap: butt; stroke-dashoffset: 0; stroke-linejoin: miter; stroke-miterlimit: 4; fill: rgb(0,0,0); fill-rule: nonzero; opacity: 1;" vector-effect="non-scaling-stroke"  transform=" translate(0, 0)" d="M -33.4728 -33.4728 L 33.47281 -33.4728 L 33.47281 33.47281 L -33.4728 33.47281 z" stroke-linecap="round" />
</g>
<g transform="matrix(1.5 -1.17 1.17 1.5 272.86 183)" id="NvFncabbwn2n_xjWef_P6"  >
<path style="stroke: rgb(255,153,153); stroke-width: 0; stroke-dasharray: none; stroke-linecap: butt; stroke-dashoffset: 0; stroke-linejoin: miter; stroke-miterlimit: 4; fill: rgb(0,0,0); fill-rule: nonzero; opacity: 1;" vector-effect="non-scaling-stroke"  transform=" translate(0, 0)" d="M -33.4728 -33.4728 L 33.47281 -33.4728 L 33.47281 33.47281 L -33.4728 33.47281 z" stroke-linecap="round" />
</g>
<g transform="matrix(0 -1.9 1.9 0 314.97 176.65)" id="AP-Zu8N638RJoJbatyI1q"  >
<path style="stroke: rgb(255,153,153); stroke-width: 0; stroke-dasharray: none; stroke-linecap: butt; stroke-dashoffset: 0; stroke-linejoin: miter; stroke-miterlimit: 4; fill: rgb(0,0,0); fill-rule: nonzero; opacity: 1;" vector-effect="non-scaling-stroke"  transform=" translate(0, 0)" d="M -33.4728 -33.4728 L 33.47281 -33.4728 L 33.47281 33.47281 L -33.4728 33.47281 z" stroke-linecap="round" />
</g>
<g transform="matrix(-0.23 -1.89 1.89 -0.23 299.7 178.57)" id="JXPJI7Gyd9f97C8Im2pyx"  >
<path style="stroke: rgb(255,153,153); stroke-width: 0; stroke-dasharray: none; stroke-linecap: butt; stroke-dashoffset: 0; stroke-linejoin: miter; stroke-miterlimit: 4; fill: rgb(0,0,0); fill-rule: nonzero; opacity: 1;" vector-effect="non-scaling-stroke"  transform=" translate(0, 0)" d="M -33.4728 -33.4728 L 33.47281 -33.4728 L 33.47281 33.47281 L -33.4728 33.47281 z" stroke-linecap="round" />
</g>
<g transform="matrix(-0.46 -1.84 1.84 -0.46 293.48 179.55)" id="SwrmTFBuZ2bNicVMhhjVv"  >
<path style="stroke: rgb(255,153,153); stroke-width: 0; stroke-dasharray: none; stroke-linecap: butt; stroke-dashoffset: 0; stroke-linejoin: miter; stroke-miterlimit: 4; fill: rgb(0,0,0); fill-rule: nonzero; opacity: 1;" vector-effect="non-scaling-stroke"  transform=" translate(0, 0)" d="M -33.4728 -33.4728 L 33.47281 -33.4728 L 33.47281 33.47281 L -33.4728 33.47281 z" stroke-linecap="round" />
</g>
<g transform="matrix(-1.43 -1.25 1.25 -1.43 242.29 207.24)" id="gYzb8w1GIf3sHwriuVRQ4"  >
<path style="stroke: rgb(255,153,153); stroke-width: 0; stroke-dasharray: none; stroke-linecap: butt; stroke-dashoffset: 0; stroke-linejoin: miter; stroke-miterlimit: 4; fill: rgb(0,0,0); fill-rule: nonzero; opacity: 1;" vector-effect="non-scaling-stroke"  transform=" translate(0, 0)" d="M -33.4728 -33.4728 L 33.47281 -33.4728 L 33.47281 33.47281 L -33.4728 33.47281 z" stroke-linecap="round" />
</g>
<g transform="matrix(0.55 -0.65 0.65 0.55 197.18 155.55)" id="reac4lPhi6C55If4BG6Cs"  >
<g style="" vector-effect="non-scaling-stroke"   >
		<g transform="matrix(0.24 0 0 0.4 13.16 -20.76)" id="WRAHCY1wfz-aYwQPOl8Js"  >
<path style="stroke: none; stroke-width: 1; stroke-dasharray: none; stroke-linecap: butt; stroke-dashoffset: 0; stroke-linejoin: miter; stroke-miterlimit: 4; fill: rgb(255,153,153); fill-rule: nonzero; opacity: 1;" vector-effect="non-scaling-stroke"  transform=" translate(0, 0)" d="M -54.64436 -54.93761 L 54.64436 54.93762 L -54.64436 25.062390000000004 z" stroke-linecap="round" />
</g>
		<g transform="matrix(0.33 0 0 0.15 13.16 2.7)" id="SD2qZ9i5_BZ1ZLeegOQCc"  >
<path style="stroke: none; stroke-width: 1; stroke-dasharray: none; stroke-linecap: butt; stroke-dashoffset: 0; stroke-linejoin: miter; stroke-miterlimit: 4; fill: rgb(217,122,122); fill-rule: nonzero; opacity: 1;" vector-effect="non-scaling-stroke"  transform=" translate(0, 0)" d="M -39.85927 -90.06274 L 39.85927 -11.334890000000001 L -39.85927 90.06275 z" stroke-linecap="round" />
</g>
		<g transform="matrix(0.33 0 0 0.27 13.17 24.15)" id="h2C9IDlU3iwc5Fa3rCv6w"  >
<path style="stroke: none; stroke-width: 1; stroke-dasharray: none; stroke-linecap: butt; stroke-dashoffset: 0; stroke-linejoin: miter; stroke-miterlimit: 4; fill: rgb(255,153,153); fill-rule: nonzero; opacity: 1;" vector-effect="non-scaling-stroke"  transform=" translate(0, 0)" d="M -39.69595 -11.13568 L 39.69595 -68.86433 L -39.69595 68.86431999999999 z" stroke-linecap="round" />
</g>
		<g transform="matrix(-0.24 0 0 0.4 -13.16 -20.76)" id="NG7BDhYQ0HJ8B4G5BRtCD"  >
<path style="stroke: none; stroke-width: 1; stroke-dasharray: none; stroke-linecap: butt; stroke-dashoffset: 0; stroke-linejoin: miter; stroke-miterlimit: 4; fill: rgb(201,159,159); fill-rule: nonzero; opacity: 1;" vector-effect="non-scaling-stroke"  transform=" translate(0, 0)" d="M -54.64436 -54.93761 L 54.64436 54.93762 L -54.64436 25.062390000000004 z" stroke-linecap="round" />
</g>
		<g transform="matrix(-0.33 0 0 0.15 -13.16 2.7)" id="8QBJoTNHAVCqx3W99DSgU"  >
<path style="stroke: none; stroke-width: 1; stroke-dasharray: none; stroke-linecap: butt; stroke-dashoffset: 0; stroke-linejoin: miter; stroke-miterlimit: 4; fill: rgb(255,153,153); fill-rule: nonzero; opacity: 1;" vector-effect="non-scaling-stroke"  transform=" translate(0, 0)" d="M -39.85927 -90.06274 L 39.85927 -11.334890000000001 L -39.85927 90.06275 z" stroke-linecap="round" />
</g>
		<g transform="matrix(-0.33 0 0 0.27 -13.17 24.15)" id="Yt0Dvey6g662KOS7lX-2w"  >
<path style="stroke: none; stroke-width: 1; stroke-dasharray: none; stroke-linecap: butt; stroke-dashoffset: 0; stroke-linejoin: miter; stroke-miterlimit: 4; fill: rgb(201,159,159); fill-rule: nonzero; opacity: 1;" vector-effect="non-scaling-stroke"  transform=" translate(0, 0)" d="M -39.69595 -11.13568 L 39.69595 -68.86433 L -39.69595 68.86431999999999 z" stroke-linecap="round" />
</g>
</g>
</g>
<g transform="matrix(1.08 0.19 -0.19 1.08 328.68 178.57)" id="Wq7t9C4M-feNxaxotahKV"  >
<g style="" vector-effect="non-scaling-stroke"   >
		<g transform="matrix(0.24 0 0 0.4 13.16 -20.76)" id="x7KgAdZqrb3562tk3GzGA"  >
<path style="stroke: none; stroke-width: 1; stroke-dasharray: none; stroke-linecap: butt; stroke-dashoffset: 0; stroke-linejoin: miter; stroke-miterlimit: 4; fill: rgb(255,153,153); fill-rule: nonzero; opacity: 1;" vector-effect="non-scaling-stroke"  transform=" translate(0, 0)" d="M -54.64436 -54.93761 L 54.64436 54.93762 L -54.64436 25.062390000000004 z" stroke-linecap="round" />
</g>
		<g transform="matrix(0.33 0 0 0.15 13.16 2.7)" id="jeR1htwSYBGnunP223Cii"  >
<path style="stroke: none; stroke-width: 1; stroke-dasharray: none; stroke-linecap: butt; stroke-dashoffset: 0; stroke-linejoin: miter; stroke-miterlimit: 4; fill: rgb(217,122,122); fill-rule: nonzero; opacity: 1;" vector-effect="non-scaling-stroke"  transform=" translate(0, 0)" d="M -39.85927 -90.06274 L 39.85927 -11.334890000000001 L -39.85927 90.06275 z" stroke-linecap="round" />
</g>
		<g transform="matrix(0.33 0 0 0.27 13.17 24.15)" id="fVUBFH2WEXeYWWAnVLnmO"  >
<path style="stroke: none; stroke-width: 1; stroke-dasharray: none; stroke-linecap: butt; stroke-dashoffset: 0; stroke-linejoin: miter; stroke-miterlimit: 4; fill: rgb(255,153,153); fill-rule: nonzero; opacity: 1;" vector-effect="non-scaling-stroke"  transform=" translate(0, 0)" d="M -39.69595 -11.13568 L 39.69595 -68.86433 L -39.69595 68.86431999999999 z" stroke-linecap="round" />
</g>
		<g transform="matrix(-0.24 0 0 0.4 -13.16 -20.76)" id="mNcms9vVBqkwK21hxBQ6L"  >
<path style="stroke: none; stroke-width: 1; stroke-dasharray: none; stroke-linecap: butt; stroke-dashoffset: 0; stroke-linejoin: miter; stroke-miterlimit: 4; fill: rgb(201,159,159); fill-rule: nonzero; opacity: 1;" vector-effect="non-scaling-stroke"  transform=" translate(0, 0)" d="M -54.64436 -54.93761 L 54.64436 54.93762 L -54.64436 25.062390000000004 z" stroke-linecap="round" />
</g>
		<g transform="matrix(-0.33 0 0 0.15 -13.16 2.7)" id="WsER0DWZdCUHh0AAuJHUO"  >
<path style="stroke: none; stroke-width: 1; stroke-dasharray: none; stroke-linecap: butt; stroke-dashoffset: 0; stroke-linejoin: miter; stroke-miterlimit: 4; fill: rgb(255,153,153); fill-rule: nonzero; opacity: 1;" vector-effect="non-scaling-stroke"  transform=" translate(0, 0)" d="M -39.85927 -90.06274 L 39.85927 -11.334890000000001 L -39.85927 90.06275 z" stroke-linecap="round" />
</g>
		<g transform="matrix(-0.33 0 0 0.27 -13.17 24.15)" id="-SuWNwc9U8QX14cE3usGV"  >
<path style="stroke: none; stroke-width: 1; stroke-dasharray: none; stroke-linecap: butt; stroke-dashoffset: 0; stroke-linejoin: miter; stroke-miterlimit: 4; fill: rgb(201,159,159); fill-rule: nonzero; opacity: 1;" vector-effect="non-scaling-stroke"  transform=" translate(0, 0)" d="M -39.69595 -11.13568 L 39.69595 -68.86433 L -39.69595 68.86431999999999 z" stroke-linecap="round" />
</g>
</g>
</g>
<g transform="matrix(0.44 -0.37 0.37 0.44 271.03 196.71)" id="I_cXWH_vjAjg4ru4OKx_L"  >
<g style="" vector-effect="non-scaling-stroke"   >
		<g transform="matrix(0.24 0 0 0.4 13.16 -20.76)" id="AiSp-D7e-576Tc8PxiJ8j"  >
<path style="stroke: none; stroke-width: 1; stroke-dasharray: none; stroke-linecap: butt; stroke-dashoffset: 0; stroke-linejoin: miter; stroke-miterlimit: 4; fill: rgb(255,153,153); fill-rule: nonzero; opacity: 1;" vector-effect="non-scaling-stroke"  transform=" translate(0, 0)" d="M -54.64436 -54.93761 L 54.64436 54.93762 L -54.64436 25.062390000000004 z" stroke-linecap="round" />
</g>
		<g transform="matrix(0.33 0 0 0.15 13.16 2.7)" id="aJMqbYi_vHNcSSESj5dnr"  >
<path style="stroke: none; stroke-width: 1; stroke-dasharray: none; stroke-linecap: butt; stroke-dashoffset: 0; stroke-linejoin: miter; stroke-miterlimit: 4; fill: rgb(217,122,122); fill-rule: nonzero; opacity: 1;" vector-effect="non-scaling-stroke"  transform=" translate(0, 0)" d="M -39.85927 -90.06274 L 39.85927 -11.334890000000001 L -39.85927 90.06275 z" stroke-linecap="round" />
</g>
		<g transform="matrix(0.33 0 0 0.27 13.17 24.15)" id="As6egARbYw3ycJx3N52Ma"  >
<path style="stroke: none; stroke-width: 1; stroke-dasharray: none; stroke-linecap: butt; stroke-dashoffset: 0; stroke-linejoin: miter; stroke-miterlimit: 4; fill: rgb(255,153,153); fill-rule: nonzero; opacity: 1;" vector-effect="non-scaling-stroke"  transform=" translate(0, 0)" d="M -39.69595 -11.13568 L 39.69595 -68.86433 L -39.69595 68.86431999999999 z" stroke-linecap="round" />
</g>
		<g transform="matrix(-0.24 0 0 0.4 -13.16 -20.76)" id="__eACfnI0KsK4V_8tEs24"  >
<path style="stroke: none; stroke-width: 1; stroke-dasharray: none; stroke-linecap: butt; stroke-dashoffset: 0; stroke-linejoin: miter; stroke-miterlimit: 4; fill: rgb(201,159,159); fill-rule: nonzero; opacity: 1;" vector-effect="non-scaling-stroke"  transform=" translate(0, 0)" d="M -54.64436 -54.93761 L 54.64436 54.93762 L -54.64436 25.062390000000004 z" stroke-linecap="round" />
</g>
		<g transform="matrix(-0.33 0 0 0.15 -13.16 2.7)" id="-zgT6PVY2VmrO6_se1E-L"  >
<path style="stroke: none; stroke-width: 1; stroke-dasharray: none; stroke-linecap: butt; stroke-dashoffset: 0; stroke-linejoin: miter; stroke-miterlimit: 4; fill: rgb(255,153,153); fill-rule: nonzero; opacity: 1;" vector-effect="non-scaling-stroke"  transform=" translate(0, 0)" d="M -39.85927 -90.06274 L 39.85927 -11.334890000000001 L -39.85927 90.06275 z" stroke-linecap="round" />
</g>
		<g transform="matrix(-0.33 0 0 0.27 -13.17 24.15)" id="3YTV61nm_Srr5OIa8H3M8"  >
<path style="stroke: none; stroke-width: 1; stroke-dasharray: none; stroke-linecap: butt; stroke-dashoffset: 0; stroke-linejoin: miter; stroke-miterlimit: 4; fill: rgb(201,159,159); fill-rule: nonzero; opacity: 1;" vector-effect="non-scaling-stroke"  transform=" translate(0, 0)" d="M -39.69595 -11.13568 L 39.69595 -68.86433 L -39.69595 68.86431999999999 z" stroke-linecap="round" />
</g>
</g>
</g>
<g transform="matrix(0.6 0.34 -0.35 0.6 386.78 135.68)" id="GieB11HuPhlWidbYfKzXO"  >
<g style="" vector-effect="non-scaling-stroke"   >
		<g transform="matrix(0.24 0 0 0.4 13.16 -20.76)" id="1RScK81EYtp4XtT-21DeP"  >
<path style="stroke: none; stroke-width: 1; stroke-dasharray: none; stroke-linecap: butt; stroke-dashoffset: 0; stroke-linejoin: miter; stroke-miterlimit: 4; fill: rgb(255,153,153); fill-rule: nonzero; opacity: 1;" vector-effect="non-scaling-stroke"  transform=" translate(0, 0)" d="M -54.64436 -54.93761 L 54.64436 54.93762 L -54.64436 25.062390000000004 z" stroke-linecap="round" />
</g>
		<g transform="matrix(0.33 0 0 0.15 13.16 2.7)" id="XMia0C5Ph9me0-cppY2Dc"  >
<path style="stroke: none; stroke-width: 1; stroke-dasharray: none; stroke-linecap: butt; stroke-dashoffset: 0; stroke-linejoin: miter; stroke-miterlimit: 4; fill: rgb(217,122,122); fill-rule: nonzero; opacity: 1;" vector-effect="non-scaling-stroke"  transform=" translate(0, 0)" d="M -39.85927 -90.06274 L 39.85927 -11.334890000000001 L -39.85927 90.06275 z" stroke-linecap="round" />
</g>
		<g transform="matrix(0.33 0 0 0.27 13.17 24.15)" id="ru7fVCr-Yf6FCEuXx9AhA"  >
<path style="stroke: none; stroke-width: 1; stroke-dasharray: none; stroke-linecap: butt; stroke-dashoffset: 0; stroke-linejoin: miter; stroke-miterlimit: 4; fill: rgb(255,153,153); fill-rule: nonzero; opacity: 1;" vector-effect="non-scaling-stroke"  transform=" translate(0, 0)" d="M -39.69595 -11.13568 L 39.69595 -68.86433 L -39.69595 68.86431999999999 z" stroke-linecap="round" />
</g>
		<g transform="matrix(-0.24 0 0 0.4 -13.16 -20.76)" id="G3S1ICtlfcdX90SnYuNOs"  >
<path style="stroke: none; stroke-width: 1; stroke-dasharray: none; stroke-linecap: butt; stroke-dashoffset: 0; stroke-linejoin: miter; stroke-miterlimit: 4; fill: rgb(201,159,159); fill-rule: nonzero; opacity: 1;" vector-effect="non-scaling-stroke"  transform=" translate(0, 0)" d="M -54.64436 -54.93761 L 54.64436 54.93762 L -54.64436 25.062390000000004 z" stroke-linecap="round" />
</g>
		<g transform="matrix(-0.33 0 0 0.15 -13.16 2.7)" id="9J4yF9CegQdiKBRJGZnTs"  >
<path style="stroke: none; stroke-width: 1; stroke-dasharray: none; stroke-linecap: butt; stroke-dashoffset: 0; stroke-linejoin: miter; stroke-miterlimit: 4; fill: rgb(255,153,153); fill-rule: nonzero; opacity: 1;" vector-effect="non-scaling-stroke"  transform=" translate(0, 0)" d="M -39.85927 -90.06274 L 39.85927 -11.334890000000001 L -39.85927 90.06275 z" stroke-linecap="round" />
</g>
		<g transform="matrix(-0.33 0 0 0.27 -13.17 24.15)" id="qTRNXE_3LmWCL1JiwjfYw"  >
<path style="stroke: none; stroke-width: 1; stroke-dasharray: none; stroke-linecap: butt; stroke-dashoffset: 0; stroke-linejoin: miter; stroke-miterlimit: 4; fill: rgb(201,159,159); fill-rule: nonzero; opacity: 1;" vector-effect="non-scaling-stroke"  transform=" translate(0, 0)" d="M -39.69595 -11.13568 L 39.69595 -68.86433 L -39.69595 68.86431999999999 z" stroke-linecap="round" />
</g>
</g>
</g>
<g transform="matrix(1.1 -0.19 0.19 1.1 286.45 73.52)" id="BRaEt_luoos6R73t2hMgH"  >
<g style="" vector-effect="non-scaling-stroke"   >
		<g transform="matrix(0.24 0 0 0.4 13.16 -20.76)" id="Yiv9hQLQ-wnm5GHm0uZPb"  >
<path style="stroke: none; stroke-width: 1; stroke-dasharray: none; stroke-linecap: butt; stroke-dashoffset: 0; stroke-linejoin: miter; stroke-miterlimit: 4; fill: rgb(255,153,153); fill-rule: nonzero; opacity: 1;" vector-effect="non-scaling-stroke"  transform=" translate(0, 0)" d="M -54.64436 -54.93761 L 54.64436 54.93762 L -54.64436 25.062390000000004 z" stroke-linecap="round" />
</g>
		<g transform="matrix(0.33 0 0 0.15 13.16 2.7)" id="znlZXoxpVKUHb8O3m0EAL"  >
<path style="stroke: none; stroke-width: 1; stroke-dasharray: none; stroke-linecap: butt; stroke-dashoffset: 0; stroke-linejoin: miter; stroke-miterlimit: 4; fill: rgb(217,122,122); fill-rule: nonzero; opacity: 1;" vector-effect="non-scaling-stroke"  transform=" translate(0, 0)" d="M -39.85927 -90.06274 L 39.85927 -11.334890000000001 L -39.85927 90.06275 z" stroke-linecap="round" />
</g>
		<g transform="matrix(0.33 0 0 0.27 13.17 24.15)" id="xyLm6Y7Dlg5xecxxiaZ8q"  >
<path style="stroke: none; stroke-width: 1; stroke-dasharray: none; stroke-linecap: butt; stroke-dashoffset: 0; stroke-linejoin: miter; stroke-miterlimit: 4; fill: rgb(255,153,153); fill-rule: nonzero; opacity: 1;" vector-effect="non-scaling-stroke"  transform=" translate(0, 0)" d="M -39.69595 -11.13568 L 39.69595 -68.86433 L -39.69595 68.86431999999999 z" stroke-linecap="round" />
</g>
		<g transform="matrix(-0.24 0 0 0.4 -13.16 -20.76)" id="gkABu5RqEU-580y2m_E5z"  >
<path style="stroke: none; stroke-width: 1; stroke-dasharray: none; stroke-linecap: butt; stroke-dashoffset: 0; stroke-linejoin: miter; stroke-miterlimit: 4; fill: rgb(201,159,159); fill-rule: nonzero; opacity: 1;" vector-effect="non-scaling-stroke"  transform=" translate(0, 0)" d="M -54.64436 -54.93761 L 54.64436 54.93762 L -54.64436 25.062390000000004 z" stroke-linecap="round" />
</g>
		<g transform="matrix(-0.33 0 0 0.15 -13.16 2.7)" id="J-HNFMxlDnVkgw6VFQquL"  >
<path style="stroke: none; stroke-width: 1; stroke-dasharray: none; stroke-linecap: butt; stroke-dashoffset: 0; stroke-linejoin: miter; stroke-miterlimit: 4; fill: rgb(255,153,153); fill-rule: nonzero; opacity: 1;" vector-effect="non-scaling-stroke"  transform=" translate(0, 0)" d="M -39.85927 -90.06274 L 39.85927 -11.334890000000001 L -39.85927 90.06275 z" stroke-linecap="round" />
</g>
		<g transform="matrix(-0.33 0 0 0.27 -13.17 24.15)" id="CXqYX2yqG6QnO_fj9jDwf"  >
<path style="stroke: none; stroke-width: 1; stroke-dasharray: none; stroke-linecap: butt; stroke-dashoffset: 0; stroke-linejoin: miter; stroke-miterlimit: 4; fill: rgb(201,159,159); fill-rule: nonzero; opacity: 1;" vector-effect="non-scaling-stroke"  transform=" translate(0, 0)" d="M -39.69595 -11.13568 L 39.69595 -68.86433 L -39.69595 68.86431999999999 z" stroke-linecap="round" />
</g>
</g>
</g>
<g transform="matrix(0.64 0.64 -0.64 0.64 408.97 189.72)" id="0T9DDx8_wrYyjLoQukg8n"  >
<g style="" vector-effect="non-scaling-stroke"   >
		<g transform="matrix(0.24 0 0 0.4 13.16 -20.76)" id="H-wbcHnnUKeJZT9MIYV_U"  >
<path style="stroke: none; stroke-width: 1; stroke-dasharray: none; stroke-linecap: butt; stroke-dashoffset: 0; stroke-linejoin: miter; stroke-miterlimit: 4; fill: rgb(255,153,153); fill-rule: nonzero; opacity: 1;" vector-effect="non-scaling-stroke"  transform=" translate(0, 0)" d="M -54.64436 -54.93761 L 54.64436 54.93762 L -54.64436 25.062390000000004 z" stroke-linecap="round" />
</g>
		<g transform="matrix(0.33 0 0 0.15 13.16 2.7)" id="dxbnzQ09APIaojVaR013v"  >
<path style="stroke: none; stroke-width: 1; stroke-dasharray: none; stroke-linecap: butt; stroke-dashoffset: 0; stroke-linejoin: miter; stroke-miterlimit: 4; fill: rgb(217,122,122); fill-rule: nonzero; opacity: 1;" vector-effect="non-scaling-stroke"  transform=" translate(0, 0)" d="M -39.85927 -90.06274 L 39.85927 -11.334890000000001 L -39.85927 90.06275 z" stroke-linecap="round" />
</g>
		<g transform="matrix(0.33 0 0 0.27 13.17 24.15)" id="eAixg1TeYl_-wfDeOqOw3"  >
<path style="stroke: none; stroke-width: 1; stroke-dasharray: none; stroke-linecap: butt; stroke-dashoffset: 0; stroke-linejoin: miter; stroke-miterlimit: 4; fill: rgb(255,153,153); fill-rule: nonzero; opacity: 1;" vector-effect="non-scaling-stroke"  transform=" translate(0, 0)" d="M -39.69595 -11.13568 L 39.69595 -68.86433 L -39.69595 68.86431999999999 z" stroke-linecap="round" />
</g>
		<g transform="matrix(-0.24 0 0 0.4 -13.16 -20.76)" id="pg8ykYvclW56FOX0mNoqD"  >
<path style="stroke: none; stroke-width: 1; stroke-dasharray: none; stroke-linecap: butt; stroke-dashoffset: 0; stroke-linejoin: miter; stroke-miterlimit: 4; fill: rgb(201,159,159); fill-rule: nonzero; opacity: 1;" vector-effect="non-scaling-stroke"  transform=" translate(0, 0)" d="M -54.64436 -54.93761 L 54.64436 54.93762 L -54.64436 25.062390000000004 z" stroke-linecap="round" />
</g>
		<g transform="matrix(-0.33 0 0 0.15 -13.16 2.7)" id="7RRvHo--tHabAxYovjdgf"  >
<path style="stroke: none; stroke-width: 1; stroke-dasharray: none; stroke-linecap: butt; stroke-dashoffset: 0; stroke-linejoin: miter; stroke-miterlimit: 4; fill: rgb(255,153,153); fill-rule: nonzero; opacity: 1;" vector-effect="non-scaling-stroke"  transform=" translate(0, 0)" d="M -39.85927 -90.06274 L 39.85927 -11.334890000000001 L -39.85927 90.06275 z" stroke-linecap="round" />
</g>
		<g transform="matrix(-0.33 0 0 0.27 -13.17 24.15)" id="v9iebfTLxiAXFSiqJgls4"  >
<path style="stroke: none; stroke-width: 1; stroke-dasharray: none; stroke-linecap: butt; stroke-dashoffset: 0; stroke-linejoin: miter; stroke-miterlimit: 4; fill: rgb(201,159,159); fill-rule: nonzero; opacity: 1;" vector-effect="non-scaling-stroke"  transform=" translate(0, 0)" d="M -39.69595 -11.13568 L 39.69595 -68.86433 L -39.69595 68.86431999999999 z" stroke-linecap="round" />
</g>
</g>
</g>
<g transform="matrix(1.5 0 0 1.5 319.97 320.53)" id="LYNbd-IqzzXYkyOlosLch"  >
<path style="stroke: rgb(255,153,153); stroke-width: 7; stroke-dasharray: none; stroke-linecap: butt; stroke-dashoffset: 0; stroke-linejoin: miter; stroke-miterlimit: 4; fill: rgb(217,122,122); fill-opacity: 0; fill-rule: nonzero; opacity: 1;" vector-effect="non-scaling-stroke"  transform=" translate(0, 0)" d="M 0 -208.8983 C 115.31186 -208.8983 208.8983 -115.31186000000001 208.8983 0 C 208.8983 115.31186 115.31186000000001 208.8983 0 208.8983 C -115.31186 208.8983 -208.8983 115.31186000000001 -208.8983 0 C -208.8983 -115.31186 -115.31186000000001 -208.8983 0 -208.8983 z" stroke-linecap="round" />
</g>
<g transform="matrix(0.22 0.46 -0.46 0.22 294.25 235.03)" id="MxkfPpiR6IUk5AP3pwtlI"  >
<path style="stroke: rgb(255,153,153); stroke-width: 0; stroke-dasharray: none; stroke-linecap: butt; stroke-dashoffset: 0; stroke-linejoin: miter; stroke-miterlimit: 4; fill: rgb(0,0,0); fill-rule: nonzero; opacity: 1;" vector-effect="non-scaling-stroke"  transform=" translate(0, 0)" d="M -24.03846 -24.03846 L 24.03846 -24.03846 L 24.03846 24.03846 L -24.03846 24.03846 z" stroke-linecap="round" />
</g>
<g transform="matrix(0.52 0.18 -0.18 0.52 339.29 231.36)" id="7sceHXtAkqMhXtY1Meryr"  >
<path style="stroke: rgb(255,153,153); stroke-width: 0; stroke-dasharray: none; stroke-linecap: butt; stroke-dashoffset: 0; stroke-linejoin: miter; stroke-miterlimit: 4; fill: rgb(0,0,0); fill-rule: nonzero; opacity: 1;" vector-effect="non-scaling-stroke"  transform=" translate(0, 0)" d="M -24.03846 -24.03846 L 24.03846 -24.03846 L 24.03846 24.03846 L -24.03846 24.03846 z" stroke-linecap="round" />
</g>
<g transform="matrix(1 0 0 1 535.58 32.99)" id="8oG8fsZRCwvjAPmZl_Kwq"  >
<path style="stroke: rgb(7,136,74); stroke-width: 0; stroke-dasharray: none; stroke-linecap: butt; stroke-dashoffset: 0; stroke-linejoin: miter; stroke-miterlimit: 4; fill: rgb(0,0,0); fill-rule: nonzero; opacity: 1;" vector-effect="non-scaling-stroke"  transform=" translate(-29.93, -29.93)" d="M 0 0 L 59.85401 0 L 59.85401 59.85401 L 0 59.85401 z" stroke-linecap="round" />
</g>
<g transform="matrix(1 0 0 1.2 84.26 37.48)" id="v2OB6h3EzFYNfVGplUsVV"  >
<path style="stroke: rgb(7,136,74); stroke-width: 0; stroke-dasharray: none; stroke-linecap: butt; stroke-dashoffset: 0; stroke-linejoin: miter; stroke-miterlimit: 4; fill: rgb(0,0,0); fill-rule: nonzero; opacity: 1;" vector-effect="non-scaling-stroke"  transform=" translate(0, 0)" d="M -29.92701 -29.92701 L 29.927000000000003 -29.92701 L 29.927000000000003 29.927000000000003 L -29.92701 29.927000000000003 z" stroke-linecap="round" />
</g>
<g transform="matrix(1 0 0 1 318.62 320.53)" id="klBlIUbNc8DwvsTJ87HJb"  >
<path style="stroke: rgb(57,97,48); stroke-width: 0; stroke-dasharray: none; stroke-linecap: butt; stroke-dashoffset: 0; stroke-linejoin: miter; stroke-miterlimit: 4; fill: rgb(255,255,255); fill-opacity: 0.31; fill-rule: nonzero; opacity: 1;" vector-effect="non-scaling-stroke"  transform=" translate(0, 0)" d="M 0 -318.20224 C 175.64764 -318.20224 318.20224 -175.64763000000002 318.20224 0 C 318.20224 175.64764 175.64763000000002 318.20224 0 318.20224 C -175.64764 318.20224 -318.20224 175.64763000000002 -318.20224 0 C -318.20224 -175.64764 -175.64763000000002 -318.20224 0 -318.20224 z" stroke-linecap="round" />
</g>
</svg>